v 0.4619395 0.0 -0.1913415
v 0.3535535 0.0 -0.353553
v 0.191342 0.0 -0.4619395
v 0.0 0.0 -0.5
v -0.1913415 0.0 -0.4619395
v -0.353553 0.0 -0.3535535
v -0.4619395 0.0 -0.191342
v -0.5 0.0 -0.0
v -0.46194 0.0 0.1913415
v -0.3535535 0.0 0.3535535
v -0.191342 0.0 0.4619395
v -0.0 0.0 0.5
v 0.1913415 0.0 0.46194
v 0.3535535 0.0 0.3535535
v 0.46194 0.0 0.1913415
v 0.5 0.0 0.0
v 0.4619395 1.0 -0.1913415
v 0.3535535 1.0 -0.353553
v 0.191342 1.0 -0.4619395
v 0.0 1.0 -0.5
v -0.1913415 1.0 -0.4619395
v -0.353553 1.0 -0.3535535
v -0.4619395 1.0 -0.191342
v -0.5 1.0 -0.0
v -0.46194 1.0 0.1913415
v -0.3535535 1.0 0.3535535
v -0.191342 1.0 0.4619395
v -0.0 1.0 0.5
v 0.1913415 1.0 0.46194
v 0.3535535 1.0 0.3535535
v 0.46194 1.0 0.1913415
v 0.5 1.0 0.0
v 0.0 0.0 0.0
v 0.0 1.0 0.0
vt 0.5 0.0
vt 0.0 0.159155
vt 0.0625 0.159155
vt 0.125 0.159155
vt 0.1875 0.159155
vt 0.25 0.159155
vt 0.3125 0.159155
vt 0.375 0.159155
vt 0.4375 0.159155
vt 0.5 0.159155
vt 0.5625 0.159155
vt 0.625 0.159155
vt 0.6875 0.159155
vt 0.75 0.159155
vt 0.8125 0.159155
vt 0.875 0.159155
vt 0.9375 0.159155
vt 1.0 0.159155
vt 0.0 0.477465
vt 0.0625 0.477465
vt 0.125 0.477465
vt 0.1875 0.477465
vt 0.25 0.477465
vt 0.3125 0.477465
vt 0.375 0.477465
vt 0.4375 0.477465
vt 0.5 0.477465
vt 0.5625 0.477465
vt 0.625 0.477465
vt 0.6875 0.477465
vt 0.75 0.477465
vt 0.8125 0.477465
vt 0.875 0.477465
vt 0.9375 0.477465
vt 1.0 0.477465
vt 0.5 0.63662
vn 0.947173 0.0 -0.320722
vn 0.752339 0.0 -0.658776
vn 0.896538 0.0 -0.442968
vn 0.658777 0.0 -0.752339
vn 0.442968 0.0 -0.896537
vn 0.320723 0.0 -0.947173
vn 0.066159 0.0 -0.997809
vn -0.066158 0.0 -0.997809
vn -0.320722 0.0 -0.947173
vn -0.442967 0.0 -0.896538
vn -0.658776 0.0 -0.752339
vn -0.752339 0.0 -0.658777
vn -0.896537 0.0 -0.442968
vn -0.947173 0.0 -0.320723
vn -0.997809 0.0 -0.066159
vn -0.997809 0.0 0.066158
vn -0.947173 0.0 0.320722
vn -0.896538 0.0 0.442968
vn -0.752339 0.0 0.658776
vn -0.658776 0.0 0.752339
vn -0.442968 0.0 0.896537
vn -0.320722 0.0 0.947173
vn -0.066159 0.0 0.997809
vn 0.066159 0.0 0.997809
vn 0.320722 0.0 0.947173
vn 0.442968 0.0 0.896538
vn 0.658776 0.0 0.752339
vn 0.752339 0.0 0.658776
vn 0.896537 0.0 0.442968
vn 0.947173 0.0 0.320722
vn 0.997809 0.0 0.066159
vn 0.997809 0.0 -0.066159
vn 0.0 -1.0 0.0
vn 0.0 -1.0 0.0
vn 0.0 -1.0 0.0
vn 0.0 -1.0 0.0
vn 0.0 -1.0 0.0
vn 0.0 -1.0 0.0
vn 0.0 -1.0 0.0
vn 0.0 -1.0 0.0
vn 0.0 -1.0 0.0
vn 0.0 -1.0 0.0
vn 0.0 -1.0 0.0
vn 0.0 -1.0 0.0
vn 0.0 -1.0 0.0
vn 0.0 -1.0 0.0
vn 0.0 -1.0 0.0
vn 0.0 -1.0 0.0
vn 0.0 -1.0 0.0
vn 0.0 1.0 0.0
vn 0.0 1.0 0.0
vn 0.0 1.0 0.0
vn 0.0 1.0 0.0
vn 0.0 1.0 0.0
vn 0.0 1.0 0.0
vn 0.0 1.0 0.0
vn 0.0 1.0 0.0
vn 0.0 1.0 0.0
vn 0.0 1.0 0.0
vn 0.0 1.0 0.0
vn 0.0 1.0 0.0
vn 0.0 1.0 0.0
vn 0.0 1.0 0.0
vn 0.0 1.0 0.0
vn 0.0 1.0 0.0
vn 0.0 1.0 0.0
f 1/2/1 2/3/2 17/19/3
f 2/3/2 18/20/4 17/19/3
f 2/3/2 3/4/5 18/20/4
f 3/4/5 19/21/6 18/20/4
f 3/4/5 4/5/7 19/21/6
f 4/5/7 20/22/8 19/21/6
f 4/5/7 5/6/9 20/22/8
f 5/6/9 21/23/10 20/22/8
f 5/6/9 6/7/11 21/23/10
f 6/7/11 22/24/12 21/23/10
f 6/7/11 7/8/13 22/24/12
f 7/8/13 23/25/14 22/24/12
f 7/8/13 8/9/15 23/25/14
f 8/9/15 24/26/16 23/25/14
f 8/9/15 9/10/17 24/26/16
f 9/10/17 25/27/18 24/26/16
f 9/10/17 10/11/19 25/27/18
f 10/11/19 26/28/20 25/27/18
f 10/11/19 11/12/21 26/28/20
f 11/12/21 27/29/22 26/28/20
f 11/12/21 12/13/23 27/29/22
f 12/13/23 28/30/24 27/29/22
f 12/13/23 13/14/25 28/30/24
f 13/14/25 29/31/26 28/30/24
f 13/14/25 14/15/27 29/31/26
f 14/15/27 30/32/28 29/31/26
f 14/15/27 15/16/29 30/32/28
f 15/16/29 31/33/30 30/32/28
f 15/16/29 16/17/31 31/33/30
f 16/17/31 32/34/32 31/33/30
f 16/17/31 1/18/1 32/34/32
f 1/18/1 17/35/3 32/34/32
f 2/3/33 1/2/34 33/1/35
f 3/4/36 2/3/33 33/1/35
f 4/5/37 3/4/36 33/1/35
f 5/6/38 4/5/37 33/1/35
f 6/7/39 5/6/38 33/1/35
f 7/8/40 6/7/39 33/1/35
f 8/9/41 7/8/40 33/1/35
f 9/10/42 8/9/41 33/1/35
f 10/11/43 9/10/42 33/1/35
f 11/12/44 10/11/43 33/1/35
f 12/13/45 11/12/44 33/1/35
f 13/14/46 12/13/45 33/1/35
f 14/15/47 13/14/46 33/1/35
f 15/16/48 14/15/47 33/1/35
f 16/17/49 15/16/48 33/1/35
f 1/18/34 16/17/49 33/1/35
f 17/19/50 18/20/51 34/36/52
f 18/20/51 19/21/53 34/36/52
f 19/21/53 20/22/54 34/36/52
f 20/22/54 21/23/55 34/36/52
f 21/23/55 22/24/56 34/36/52
f 22/24/56 23/25/57 34/36/52
f 23/25/57 24/26/58 34/36/52
f 24/26/58 25/27/59 34/36/52
f 25/27/59 26/28/60 34/36/52
f 26/28/60 27/29/61 34/36/52
f 27/29/61 28/30/62 34/36/52
f 28/30/62 29/31/63 34/36/52
f 29/31/63 30/32/64 34/36/52
f 30/32/64 31/33/65 34/36/52
f 31/33/65 32/34/66 34/36/52
f 32/34/66 17/35/50 34/36/52